<?xml version="1.0" standalone="no"?>
<!DOCTYPE svg PUBLIC "-//W3C//DTD SVG 20010904//EN"
 "http://www.w3.org/TR/2001/REC-SVG-20010904/DTD/svg10.dtd">
<svg version="1.0" xmlns="http://www.w3.org/2000/svg"
 width="128.000000pt" height="128.000000pt" viewBox="0 0 128.000000 128.000000"
 preserveAspectRatio="xMidYMid meet">
<metadata>
Created by potrace 1.11, written by Peter Selinger 2001-2013
</metadata>
<g transform="translate(0.000000,128.000000) scale(0.100000,-0.100000)"
fill="#000000" stroke="none">
<path d="M590 1261 c-15 -28 -12 -41 8 -41 18 -1 52 -22 52 -34 0 -4 -9 -2
-21 4 -23 13 -22 13 -38 -17 -15 -29 -14 -43 4 -43 8 0 15 -7 15 -16 0 -10 6
-14 15 -11 8 4 17 2 20 -3 4 -6 15 -10 26 -10 10 0 19 -4 19 -10 0 -5 5 -10
10 -10 15 0 12 53 -5 76 -24 35 16 50 41 17 12 -17 13 -16 14 7 0 31 -27 73
-41 64 -6 -3 -17 4 -26 15 -9 14 -21 20 -33 16 -10 -3 -21 -1 -25 5 -10 16
-23 12 -35 -9z"/>
<path d="M461 1177 c-12 -15 -5 -27 16 -27 7 0 13 9 13 20 0 23 -13 26 -29 7z"/>
<path d="M512 1168 c-20 -20 -14 -55 11 -62 35 -9 38 -7 27 13 -5 11 -10 29
-10 40 0 24 -10 27 -28 9z"/>
<path d="M383 1142 c-2 -10 -14 -22 -26 -27 -31 -14 -36 -70 -8 -78 17 -4 20
-12 17 -53 -2 -39 -6 -50 -21 -53 -10 -2 -24 5 -31 14 -13 17 -16 16 -48 -8
-32 -25 -61 -81 -54 -105 2 -6 -22 -26 -52 -44 -86 -52 -100 -81 -100 -202 0
-173 54 -318 155 -419 30 -30 55 -62 55 -71 0 -29 48 -63 115 -81 49 -14 89
-16 177 -13 127 6 185 23 221 68 23 29 111 100 125 100 4 0 17 11 29 24 13 13
44 29 69 35 74 19 136 55 187 110 62 66 87 125 87 205 0 114 -58 166 -186 166
-63 0 -73 3 -95 26 -13 14 -41 35 -61 46 -29 17 -39 29 -44 57 -7 40 -29 81
-44 81 -6 0 -10 -10 -10 -22 -1 -22 -2 -21 -18 5 -10 16 -29 31 -45 34 -16 3
-39 21 -54 39 -14 19 -29 31 -34 29 -4 -3 -16 7 -26 22 -9 15 -18 30 -20 32
-1 2 -9 -2 -17 -8 -11 -10 -16 -9 -24 6 -10 17 -11 17 -31 -1 -28 -26 -27 -53
1 -52 18 1 23 -6 29 -36 4 -29 3 -38 -9 -38 -7 0 -16 9 -19 20 -7 25 -19 26
-32 3 -5 -10 -13 -14 -17 -10 -4 4 1 13 11 21 17 12 17 15 2 53 -9 22 -29 54
-46 71 -17 17 -31 38 -31 46 0 19 -30 22 -30 4 0 -7 -5 -5 -11 5 -13 22 -30
22 -36 -1z m771 -528 c15 -14 16 -14 16 0 0 20 14 20 34 0 23 -22 20 -84 -6
-141 l-22 -48 -5 45 -6 45 -12 -33 c-19 -52 -52 -92 -101 -123 -53 -33 -66
-36 -54 -11 5 9 15 41 22 70 6 28 15 52 20 52 4 0 10 25 12 55 7 84 61 131
102 89z"/>
<path d="M726 1114 c-9 -23 -8 -24 14 -24 11 0 20 2 20 4 0 12 -13 36 -20 36
-4 0 -11 -7 -14 -16z"/>
<path d="M772 1087 c-16 -45 -16 -65 0 -49 7 7 20 12 30 12 21 0 22 7 6 43
-17 35 -21 34 -36 -6z"/>
</g>
</svg>
