<svg xmlns='http://www.w3.org/2000/svg' id="svg__logo--flatiron-text" viewBox="0 0 92 14" width="1082" height="135">
      <path fill="#FFFFFF" d="M87.0559444,4.28681455 L87.0559444,13.6977619 L91.2137715,13.6977619 L91.2137715,12.2902934 L88.6723758,12.2902934 L88.6723758,4.28681455 L87.0559444,4.28681455 Z M81.114177,11.4169354 C81.114177,12.7465715 81.8964486,13.8283285 83.5907124,13.8283285 C85.2855402,13.8283285 86.0678118,12.7465715 86.0678118,11.4169354 L86.0678118,6.56764107 C86.0678118,5.23800494 85.2855402,4.15624795 83.5907124,4.15624795 C81.8964486,4.15624795 81.114177,5.23800494 81.114177,6.56764107 L81.114177,11.4169354 Z M82.7306084,6.60683925 C82.7306084,5.903246 82.9390074,5.56428044 83.5907124,5.56428044 C84.2424174,5.56428044 84.4508164,5.903246 84.4508164,6.60683925 L84.4508164,11.3774552 C84.4508164,12.0816125 84.2424174,12.420578 83.5907124,12.420578 C82.9390074,12.420578 82.7306084,12.0816125 82.7306084,11.3774552 L82.7306084,6.60683925 Z M75.0942953,11.4169354 C75.0942953,12.7465715 75.8768489,13.8283285 77.5708307,13.8283285 C79.2656585,13.8283285 80.0479301,12.7465715 80.0479301,11.4169354 L80.0479301,6.56764107 C80.0479301,5.23800494 79.2656585,4.15624795 77.5708307,4.15624795 C75.8768489,4.15624795 75.0942953,5.23800494 75.0942953,6.56764107 L75.0942953,11.4169354 Z M76.7107267,6.60683925 C76.7107267,5.903246 76.9191257,5.56428044 77.5708307,5.56428044 C78.2228177,5.56428044 78.4312166,5.903246 78.4312166,6.60683925 L78.4312166,11.3774552 C78.4312166,12.0816125 78.2228177,12.420578 77.5708307,12.420578 C76.9191257,12.420578 76.7107267,12.0816125 76.7107267,11.3774552 L76.7107267,6.60683925 Z M70.690845,13.6980439 L70.690845,9.5266807 L72.4118989,9.5266807 L72.4118989,13.6980439 L74.0280483,13.6980439 L74.0280483,4.28681455 L72.4118989,4.28681455 L72.4118989,8.11864821 L70.690845,8.11864821 L70.690845,4.28681455 L69.0746955,4.28681455 L69.0746955,13.6980439 L70.690845,13.6980439 Z M68.101509,7.42802703 L68.101509,6.73740585 C68.101509,5.32937336 67.3192374,4.15652995 65.702806,4.15652995 C64.0085422,4.15652995 63.2262706,5.23828694 63.2262706,6.56792307 L63.2262706,11.4169354 C63.2262706,12.7462895 64.0085422,13.8280465 65.702806,13.8280465 C67.3192374,13.8280465 68.101509,12.7462895 68.101509,11.4169354 L68.101509,10.3346144 L66.4850776,10.3346144 L66.4850776,11.4688237 C66.4850776,12.0816125 66.2893687,12.420578 65.702806,12.420578 C65.051101,12.420578 64.842702,12.0816125 64.842702,11.3777372 L64.842702,6.60683925 C64.842702,5.902964 65.051101,5.56399844 65.702806,5.56399844 C66.1198859,5.56399844 66.4850776,5.902964 66.4850776,6.69792567 L66.4850776,7.42802703 L68.101509,7.42802703 Z M62.2491361,6.43735647 C62.1058794,5.10772034 61.3233258,4.15652995 60.0072257,4.15652995 C58.4167384,4.15652995 57.5044642,5.00337986 57.5044642,6.50249877 C57.5044642,9.2006872 60.7894973,9.69616348 60.7894973,11.5604741 C60.7894973,12.1205287 60.4110516,12.420578 59.850997,12.420578 C59.3292946,12.420578 58.9514129,11.9510459 58.8862706,10.9998555 L57.3476715,11.2215085 C57.4133778,12.628977 58.2734817,13.8280465 59.7726006,13.8280465 C61.2844096,13.8280465 62.3275324,12.9679426 62.3275324,11.4166534 C62.3275324,8.86228564 59.0424993,8.09270409 59.0424993,6.48952671 C59.0424993,5.902964 59.3292946,5.56399844 59.850997,5.56399844 C60.2153427,5.56399844 60.6459587,5.79834152 60.711101,6.60683925 L62.2491361,6.43735647 Z M50.2598508,13.7755943 L50.2598508,7.89671319 L50.2857949,7.89671319 L52.3455324,13.7755943 L53.7532829,13.7755943 L53.7532829,4.36464691 L52.2933622,4.36464691 L52.2933622,9.74776972 L52.2674181,9.74776972 L50.299331,4.36464691 L48.8002121,4.36464691 L48.8002121,13.7755943 L50.2598508,13.7755943 Z M42.8660587,11.4944858 C42.8660587,12.8244039 43.6483303,13.9061609 45.3425942,13.9061609 C47.03714,13.9061609 47.8194116,12.8244039 47.8194116,11.4944858 L47.8194116,6.64547342 C47.8194116,5.3158373 47.03714,4.23408031 45.3425942,4.23408031 C43.6483303,4.23408031 42.8660587,5.3158373 42.8660587,6.64547342 L42.8660587,11.4944858 Z M44.4822082,6.6843896 C44.4822082,5.98079636 44.6906071,5.6418308 45.3425942,5.6418308 C45.9942992,5.6418308 46.2026981,5.98079636 46.2026981,6.6843896 L46.2026981,11.4552876 C46.2026981,12.1591628 45.9942992,12.4981284 45.3425942,12.4981284 C44.6906071,12.4981284 44.4822082,12.1591628 44.4822082,11.4552876 L44.4822082,6.6843896 Z M38.4626084,9.9172525 C38.7491218,9.9172525 39.0880873,9.90428044 39.2964863,9.87833632 L40.4439496,13.7755943 L42.0863251,13.7755943 L40.7174908,9.51314464 C41.2651374,9.2655475 41.8514181,8.65304068 41.8514181,7.14066771 C41.8514181,5.13366446 40.9261718,4.36464691 39.1143135,4.36464691 L36.846177,4.36464691 L36.846177,13.7755943 L38.4626084,13.7755943 L38.4626084,9.9172525 Z M38.4626084,5.69371904 L39.0359171,5.69371904 C39.9095571,5.69371904 40.2349866,6.01999454 40.2349866,7.14066771 C40.2349866,8.26190487 39.9095571,8.58761637 39.0359171,8.58761637 L38.4626084,8.58761637 L38.4626084,5.69371904 Z M34.1133024,13.7753123 L35.7297339,13.7753123 L35.7297339,4.36436491 L34.1133024,4.36436491 L34.1133024,13.7753123 Z M30.2572166,13.7755943 L31.8736481,13.7755943 L31.8736481,5.7721154 L33.4376273,5.7721154 L33.4376273,4.36408291 L28.6929554,4.36408291 L28.6929554,5.7721154 L30.2572166,5.7721154 L30.2572166,13.7755943 Z M25.3915662,11.6901947 L27.1647904,11.6901947 L27.4513037,13.7755943 L29.0155649,13.7755943 L27.2818209,4.36464691 L25.2742537,4.36464691 L23.5407917,13.7755943 L25.1050529,13.7755943 L25.3915662,11.6901947 Z M26.2652062,6.24164756 L26.2911504,6.24164756 L26.9296013,10.2821622 L25.6267553,10.2821622 L26.2652062,6.24164756 Z M22.9872231,13.7755943 L22.9872231,12.3675618 L20.4455454,12.3675618 L20.4455454,4.36464691 L18.829114,4.36464691 L18.829114,13.7755943 L22.9872231,13.7755943 Z M13.4459912,13.7755943 L13.4459912,4.36464691 L17.9563199,4.36464691 L17.9563199,5.7721154 L15.0624226,5.7721154 L15.0624226,8.19648057 L17.2262186,8.19648057 L17.2262186,9.60423106 L15.0624226,9.60423106 L15.0624226,13.7755943 L13.4459912,13.7755943 Z"></path>
      <path fill="#00B2E6" d="M8.29190981,0 L4.16200078,13.8025536 L6.14390591,13.8025536 L10.2732509,0 L8.29190981,0 Z M6.11119376,0 L1.98184873,13.8025536 L-5.64002598e-05,13.8025536 L4.12985263,0 L6.11119376,0 Z"></path>
    </svg>
